<?xml version="1.0" standalone="no"?>
<!DOCTYPE svg PUBLIC "-//W3C//DTD SVG 20010904//EN"
 "http://www.w3.org/TR/2001/REC-SVG-20010904/DTD/svg10.dtd">
<svg version="1.0" xmlns="http://www.w3.org/2000/svg"
 width="1381.000000pt" height="1381.000000pt" viewBox="0 0 1381.000000 1381.000000"
 preserveAspectRatio="xMidYMid meet">
<metadata>
Created by potrace 1.11, written by Peter Selinger 2001-2013
</metadata>
<g transform="translate(0.000000,1381.000000) scale(0.100000,-0.100000)"
fill="#000000" stroke="none">
<path d="M6695 13754 c-389 -20 -574 -39 -884 -90 -437 -72 -794 -163 -1191
-306 -1274 -458 -2368 -1268 -3192 -2363 -110 -146 -293 -419 -395 -590 -524
-875 -854 -1904 -938 -2930 -89 -1082 76 -2170 479 -3160 101 -247 318 -686
443 -895 548 -915 1262 -1668 2128 -2242 1418 -939 3145 -1317 4830 -1057
1409 217 2711 866 3725 1856 455 444 795 873 1118 1409 509 846 830 1814 931
2806 49 476 49 941 1 1410 -115 1110 -481 2131 -1107 3088 -354 540 -839 1078
-1350 1497 -217 179 -344 273 -578 428 -985 655 -2125 1043 -3305 1125 -160
11 -605 20 -715 14z m680 -1159 c684 -57 1312 -218 1895 -485 656 -300 1164
-650 1689 -1165 529 -519 986 -1207 1271 -1915 396 -982 509 -2091 320 -3145
-182 -1014 -624 -1935 -1318 -2745 -105 -123 -377 -394 -537 -535 -254 -224
-629 -494 -905 -652 -761 -435 -1572 -685 -2450 -753 -189 -15 -624 -15 -820
0 -1073 80 -2062 440 -2930 1064 -665 478 -1222 1096 -1629 1808 -259 455
-492 1052 -600 1538 -101 458 -143 834 -143 1290 0 634 90 1200 289 1805 270
825 746 1594 1375 2225 903 907 2024 1460 3313 1635 325 45 851 58 1180 30z"/>
<path d="M9920 9463 c-276 -44 -479 -148 -665 -337 -209 -214 -312 -451 -322
-744 -8 -212 24 -375 109 -549 l41 -85 -930 -930 -930 -930 -64 32 c-152 77
-286 110 -474 117 -216 8 -361 -22 -543 -110 l-84 -40 -645 645 -645 645 35
64 c82 150 134 388 122 554 -15 199 -58 361 -136 503 -56 103 -100 163 -184
251 -161 169 -345 272 -580 327 -63 15 -117 19 -250 18 -148 -1 -182 -4 -266
-27 -121 -32 -198 -63 -294 -118 -515 -294 -719 -942 -465 -1477 177 -373 510
-607 928 -652 202 -22 456 27 631 122 l54 30 645 -645 645 -645 -37 -75 c-80
-165 -116 -319 -116 -498 0 -301 108 -579 307 -790 190 -201 417 -315 702
-354 115 -15 132 -15 255 0 219 28 413 105 573 227 123 94 256 256 328 398
156 310 157 684 3 1009 l-40 84 929 929 930 930 69 -35 c102 -51 243 -92 385
-113 121 -17 131 -17 255 0 269 37 473 131 651 299 330 312 448 762 311 1187
-26 81 -98 227 -151 304 -160 236 -428 410 -720 467 -91 18 -292 24 -367 12z
m250 -573 c41 -6 96 -24 150 -51 351 -173 430 -632 156 -904 -188 -187 -439
-227 -671 -107 -211 109 -337 361 -297 594 31 180 149 337 312 416 118 57 215
72 350 52z m-6269 -574 c118 -25 248 -104 320 -193 233 -290 147 -707 -181
-871 -170 -85 -337 -85 -510 -1 -146 72 -265 219 -299 369 -19 81 -14 243 10
313 93 277 378 442 660 383z m2848 -2857 c203 -32 392 -212 446 -424 53 -209
-31 -453 -200 -580 -243 -181 -546 -163 -756 46 -275 274 -197 739 151 907
123 59 223 74 359 51z"/>
</g>
</svg>
