<?xml version="1.0" standalone="no"?>
<!DOCTYPE svg PUBLIC "-//W3C//DTD SVG 20010904//EN"
 "http://www.w3.org/TR/2001/REC-SVG-20010904/DTD/svg10.dtd">
<svg version="1.0" xmlns="http://www.w3.org/2000/svg"
 width="1933.000000pt" height="1933.000000pt" viewBox="0 0 1933.000000 1933.000000"
 preserveAspectRatio="xMidYMid meet">
<metadata>
Created by potrace 1.11, written by Peter Selinger 2001-2013
</metadata>
<g transform="translate(0.000000,1933.000000) scale(0.100000,-0.100000)"
fill="#000000" stroke="none">
<path d="M2810 14967 l0 -1777 2283 0 c1256 0 2359 -3 2450 -7 l167 -6 0
-5574 0 -5573 1780 0 1780 0 -3 5388 c-2 4234 -6 5410 -15 5493 -7 59 -19 145
-25 193 l-13 86 2273 0 2273 0 0 1770 0 1770 -2543 0 c-1399 0 -4313 3 -6475
7 l-3932 6 0 -1776z"/>
</g>
</svg>
